{"title":"Holly Randall Dylan Ryder - Easy Ryder 720.mp4","uid":9146349,"size":299404764,"categoryP":"porn","categoryS":"movie_clips","magnet":"?xt=urn:btih:760a7ad5b12367be2aed8addfeac59668acb3fc9&amp;dn=Holly+Randall+Dylan+Ryder+-+Easy+Ryder+720.mp4&amp;tr=udp%3A%2F%2Ftracker.openbittorrent.com%3A80&amp;tr=udp%3A%2F%2Fopen.demonii.com%3A1337&amp;tr=udp%3A%2F%2Ftracker.coppersurfer.tk%3A6969&amp;tr=udp%3A%2F%2Fexodus.desync.com%3A6969","seeders":2,"leechers":1,"uploader":null,"files":1,"time":1383603194,"description":"Scene starts with some kissing and quickly progresses to a hot blowjob.  Next Dylan jumps on the sunt cock and rides him in a couple different positions before getting on her back for some missionary.  Then Dylan gets on all fours and takes it doggy then flips back onto her back for a little more missionary before taking a hot load on her big tits.\n &lt;a href=&quot;\nhttp://bayimg.com/oacDIaAFA&quot; rel=&quot;nofollow&quot; target=&quot;_NEW&quot;&gt;\nhttp://bayimg.com/oacDIaAFA&lt;/a&gt;\n\nFormat : MPEG-4\nFormat profile : Base Media\nCodec ID : isom\nFile size : 286 MiB\nDuration : 18mn 42s\nOverall bit rate : 2 134 Kbps\nEncoded date : UTC 2013-03-27 06:19:18\nTagged date : UTC 2013-03-27 06:19:18\nWriting application : Lavf53.32.100\n\nVideo\nID : 1\nFormat : AVC\nFormat/Info : Advanced Video Codec\nFormat profile : &lt;a class=&quot;__cf_email__&quot; href=&quot;/cdn-cgi/l/email-protection&quot; data-cfemail=&quot;aee6c7c9c6eee29d809f&quot;&gt;[email&amp;#160;protected]&lt;/a&gt;&lt;script cf-hash='f9e31' type=&quot;text/javascript&quot;&gt;\n/* &lt;![CDATA[ */!function(){try{var t=&quot;currentScript&quot;in document?document.currentScript:function(){for(var t=document.getElementsByTagName(&quot;script&quot;),e=t.length;e--;)if(t[e].getAttribute(&quot;cf-hash&quot;))return t[e]}();if(t&amp;&amp;t.previousSibling){var e,r,n,i,c=t.previousSibling,a=c.getAttribute(&quot;data-cfemail&quot;);if(a){for(e=&quot;&quot;,r=parseInt(a.substr(0,2),16),n=2;a.length-n;n+=2)i=parseInt(a.substr(n,2),16)^r,e+=String.fromCharCode(i);e=document.createTextNode(e),c.parentNode.replaceChild(e,c)}}}catch(u){}}();/* ]]&gt; */&lt;/script&gt;\nFormat settings, CABAC : Yes\nFormat settings, ReFrames : 5 frames\nCodec ID : avc1\nCodec ID/Info : Advanced Video Coding\nDuration : 18mn 42s\nBit rate : 2 000 Kbps\nWidth : 1 280 pixels\nHeight : 720 pixels\nDisplay aspect ratio : 16:9\nFrame rate mode : Constant\nFrame rate : 25.000 fps\nColor space : YUV\nChroma subsampling : 4:2:0\nBit depth : 8 bits\nScan type : Progressive\nBits/(Pixel*Frame) : 0.087\nStream size : 268 MiB (94%)\nWriting library : x264 core 129 r2245 bc13772\n\n\nAudio\nID : 2\nFormat : AAC\nFormat/Info : Advanced Audio Codec\nFormat profile : LC\nCodec ID : 40\nDuration : 18mn 42s\nBit rate mode : Constant\nBit rate : 128 Kbps\nChannel(s) : 2 channels\nChannel positions : Front: L R\nSampling rate : 44.1 KHz\nCompression mode : Lossy\nDelay relative to video : 80ms\nStream size : 17.1 MiB (6%)\nLanguage : English\nEncoded date : UTC 2013-03-27 06:19:18\nTagged date : UTC 2013-03-27 0","torrent":{"xt":"urn:btih:760a7ad5b12367be2aed8addfeac59668acb3fc9","amp;dn":"Holly+Randall+Dylan+Ryder+-+Easy+Ryder+720.mp4","amp;tr":["udp%3A%2F%2Ftracker.openbittorrent.com%3A80","udp%3A%2F%2Fopen.demonii.com%3A1337","udp%3A%2F%2Ftracker.coppersurfer.tk%3A6969","udp%3A%2F%2Fexodus.desync.com%3A6969"],"infoHash":"760a7ad5b12367be2aed8addfeac59668acb3fc9","infoHashBuffer":{"type":"Buffer","data":[118,10,122,213,177,35,103,190,42,237,138,221,254,172,89,102,138,203,63,201]},"announce":[],"urlList":[]}}